<?xml version="1.0" encoding="UTF-8"?>
<!DOCTYPE svg PUBLIC "-//W3C//DTD SVG 1.1//EN" "http://www.w3.org/Graphics/SVG/1.1/DTD/svg11.dtd">
<!-- Creator: CorelDRAW 2019 (64-Bit) -->
<svg xmlns="http://www.w3.org/2000/svg" xml:space="preserve" width="533.4mm" height="355.6mm" version="1.1" style="shape-rendering:geometricPrecision; text-rendering:geometricPrecision; image-rendering:optimizeQuality; fill-rule:evenodd; clip-rule:evenodd"
viewBox="0 0 53340 35560"
 xmlns:xlink="http://www.w3.org/1999/xlink"
 xmlns:xodm="http://www.corel.com/coreldraw/odm/2003">
 <defs>
  <style type="text/css">
   <![CDATA[
    .fil0 {fill:#ff000066;fill-rule:nonzero;
    }

   ]]>
  </style>
 </defs>
 <g id="Layer_x0020_1" >
  <metadata id="CorelCorpID_0Corel-Layer"/>
  <polygon class="fil0" points="21189.09,1071.29 21197.66,1063.79 21189.09,1056.28 21183.73,1063.79 "/>
  <polygon class="fil0" points="22552.73,1105.6 22592.39,1063.79 22552.73,1020.9 22510.92,1063.79 "/>
  <polygon class="fil0" points="23912.08,1144.19 23993.56,1063.79 23912.08,985.53 23834.89,1063.79 "/>
  <polygon class="fil0" points="25273.58,1177.42 25389.36,1063.79 25273.58,950.15 25159.94,1063.79 "/>
  <polygon class="fil0" points="26637.22,1214.94 26788.38,1063.79 26637.22,913.7 26484.99,1063.79 "/>
  <polygon class="fil0" points="27996.57,1249.25 28180.96,1063.79 27996.57,878.32 27812.18,1063.79 "/>
  <polygon class="fil0" points="29360.21,1282.48 29576.77,1063.79 29360.21,844.02 29141.52,1063.79 "/>
  <polygon class="fil0" points="30721.71,1313.57 30970.43,1063.79 30721.71,816.14 30470.85,1063.79 "/>
  <polygon class="fil0" points="32081.07,1347.88 32365.16,1063.79 32081.07,780.77 31800.19,1063.79 "/>
  <polygon class="fil0" points="33444.71,1372.53 33753.46,1063.79 33444.71,753.96 33132.74,1063.79 "/>
  <polygon class="fil0" points="34807.28,1403.62 35147.11,1063.79 34807.28,723.95 34467.44,1063.79 "/>
  <polygon class="fil0" points="36166.63,1430.43 36532.2,1063.79 36166.63,696.07 35799.99,1063.79 "/>
  <polygon class="fil0" points="37529.2,1452.94 37917.28,1063.79 37529.2,673.56 37141.12,1063.79 "/>
  <polygon class="fil0" points="38887.48,1474.38 39301.29,1063.79 38887.48,653.19 38477.96,1063.79 "/>
  <polygon class="fil0" points="40251.12,1493.68 40682.08,1063.79 40251.12,633.9 39822.3,1063.79 "/>
  <polygon class="fil0" points="41612.62,1512.97 42060.73,1063.79 41612.62,613.53 41163.43,1063.79 "/>
  <polygon class="fil0" points="42971.97,1527.98 43438.31,1063.79 42971.97,598.52 42510.99,1063.79 "/>
  <polygon class="fil0" points="44335.61,1542.99 44815.89,1063.79 44335.61,583.51 43855.34,1063.79 "/>
  <polygon class="fil0" points="45698.18,1552.64 46190.25,1063.79 45698.18,573.86 45207.19,1063.79 "/>
  <polygon class="fil0" points="20510.48,2431.72 20516.91,2424.21 20510.48,2418.85 20504.05,2424.21 "/>
  <polygon class="fil0" points="21868.76,2466.02 21912.72,2424.21 21868.76,2383.47 21829.1,2424.21 "/>
  <polygon class="fil0" points="23232.4,2504.61 23313.88,2424.21 23232.4,2345.95 23155.22,2424.21 "/>
  <polygon class="fil0" points="24593.9,2541.06 24709.68,2424.21 24593.9,2309.5 24478.12,2424.21 "/>
  <polygon class="fil0" points="25953.26,2581.8 26108.7,2424.21 25953.26,2269.84 25799.95,2424.21 "/>
  <polygon class="fil0" points="27316.9,2613.96 27506.65,2424.21 27316.9,2236.6 27129.29,2424.21 "/>
  <polygon class="fil0" points="28679.47,2649.34 28900.31,2424.21 28679.47,2201.23 28454.34,2424.21 "/>
  <polygon class="fil0" points="30039.89,2681.5 30296.11,2424.21 30039.89,2169.06 29783.67,2424.21 "/>
  <polygon class="fil0" points="31401.39,2715.81 31694.06,2424.21 31401.39,2133.69 31110.86,2424.21 "/>
  <polygon class="fil0" points="32765.03,2746.9 33083.43,2424.21 32765.03,2103.67 32443.42,2424.21 "/>
  <polygon class="fil0" points="34124.38,2773.7 34471.73,2424.21 34124.38,2077.94 33777.04,2424.21 "/>
  <polygon class="fil0" points="35486.95,2801.57 35863.24,2424.21 35486.95,2046.85 35109.59,2424.21 "/>
  <polygon class="fil0" points="36850.59,2826.23 37247.25,2424.21 36850.59,2024.34 36446.43,2424.21 "/>
  <polygon class="fil0" points="38207.8,2848.74 38633.4,2424.21 38207.8,2001.83 37786.49,2424.21 "/>
  <polygon class="fil0" points="39571.44,2871.25 40014.2,2424.21 39571.44,1980.38 39123.33,2424.21 "/>
  <polygon class="fil0" points="40930.8,2888.41 41396.07,2424.21 40930.8,1958.94 40469.82,2424.21 "/>
  <polygon class="fil0" points="42292.29,2908.78 42776.86,2424.21 42292.29,1941.79 41809.87,2424.21 "/>
  <polygon class="fil0" points="43655.94,2923.78 44154.44,2424.21 43655.94,1926.78 43156.36,2424.21 "/>
  <polygon class="fil0" points="45015.29,2935.58 45524.51,2424.21 45015.29,1914.99 44506.07,2424.21 "/>
  <polygon class="fil0" points="46378.93,2946.3 46898.87,2424.21 46378.93,1904.27 45856.84,2424.21 "/>
  <polygon class="fil0" points="19831.88,3794.28 19837.24,3786.78 19831.88,3779.28 19819.01,3786.78 "/>
  <polygon class="fil0" points="21189.09,3829.66 21230.9,3786.78 21189.09,3744.97 21149.42,3786.78 "/>
  <polygon class="fil0" points="22552.73,3865.04 22630.99,3786.78 22552.73,3707.45 22471.25,3786.78 "/>
  <polygon class="fil0" points="23912.08,3904.71 24030.01,3786.78 23912.08,3669.93 23798.44,3786.78 "/>
  <polygon class="fil0" points="25273.58,3942.23 25429.02,3786.78 25273.58,3631.33 25119.2,3786.78 "/>
  <polygon class="fil0" points="26637.22,3978.68 26829.12,3786.78 26637.22,3594.88 26445.32,3786.78 "/>
  <polygon class="fil0" points="27996.57,4014.05 28225.99,3786.78 27996.57,3560.58 27772.52,3786.78 "/>
  <polygon class="fil0" points="29360.21,4047.29 29621.79,3786.78 29360.21,3526.27 29097.56,3786.78 "/>
  <polygon class="fil0" points="30721.71,4082.67 31014.38,3786.78 30721.71,3493.04 30426.9,3786.78 "/>
  <polygon class="fil0" points="32081.07,4111.61 32406.97,3786.78 32081.07,3461.95 31756.24,3786.78 "/>
  <polygon class="fil0" points="33444.71,4141.63 33797.41,3786.78 33444.71,3431.93 33088.79,3786.78 "/>
  <polygon class="fil0" points="34807.28,4172.72 35191.07,3786.78 34807.28,3402.99 34420.27,3786.78 "/>
  <polygon class="fil0" points="36166.63,4198.45 36579.37,3786.78 36166.63,3375.12 35754.96,3786.78 "/>
  <polygon class="fil0" points="37529.2,4220.96 37961.23,3786.78 37529.2,3352.6 37091.8,3786.78 "/>
  <polygon class="fil0" points="38887.48,4244.54 39345.24,3786.78 38887.48,3330.09 38434,3786.78 "/>
  <polygon class="fil0" points="40251.12,4267.06 40731.4,3786.78 40251.12,3308.65 39770.84,3786.78 "/>
  <polygon class="fil0" points="41612.62,4284.21 42112.19,3786.78 41612.62,3287.21 41115.19,3786.78 "/>
  <polygon class="fil0" points="42971.97,4299.22 43486.55,3786.78 42971.97,3272.2 42459.53,3786.78 "/>
  <polygon class="fil0" points="44335.61,4314.23 44863.06,3786.78 44335.61,3258.26 43807.09,3786.78 "/>
  <polygon class="fil0" points="45698.18,4327.09 46238.49,3786.78 45698.18,3247.54 45155.73,3786.78 "/>
  <polygon class="fil0" points="19147.91,5153.64 19152.2,5147.21 19147.91,5143.99 19142.55,5147.21 "/>
  <polygon class="fil0" points="20510.48,5185.8 20545.86,5147.21 20510.48,5110.76 20474.03,5147.21 "/>
  <polygon class="fil0" points="21868.76,5222.25 21947.02,5147.21 21868.76,5073.23 21795.86,5147.21 "/>
  <polygon class="fil0" points="23232.4,5265.13 23350.33,5147.21 23232.4,5030.35 23113.41,5147.21 "/>
  <polygon class="fil0" points="24593.9,5302.65 24749.35,5147.21 24593.9,4993.9 24439.53,5147.21 "/>
  <polygon class="fil0" points="25953.26,5341.25 26150.51,5147.21 25953.26,4955.31 25761.36,5147.21 "/>
  <polygon class="fil0" points="27316.9,5374.48 27540.95,5147.21 27316.9,4923.15 27092.84,5147.21 "/>
  <polygon class="fil0" points="28679.47,5413.07 28942.12,5147.21 28679.47,4882.41 28414.67,5147.21 "/>
  <polygon class="fil0" points="30039.89,5447.38 30337.92,5147.21 30039.89,4850.25 29744.01,5147.21 "/>
  <polygon class="fil0" points="31401.39,5476.32 31729.43,5147.21 31401.39,4821.3 31072.27,5147.21 "/>
  <polygon class="fil0" points="32765.03,5510.63 33127.38,5147.21 32765.03,4785.93 32398.39,5147.21 "/>
  <polygon class="fil0" points="34124.38,5537.43 34515.68,5147.21 34124.38,4760.2 33736.3,5147.21 "/>
  <polygon class="fil0" points="35486.95,5567.45 35905.05,5147.21 35486.95,4729.11 35065.64,5147.21 "/>
  <polygon class="fil0" points="36850.59,5591.03 37289.06,5147.21 36850.59,4705.52 36406.77,5147.21 "/>
  <polygon class="fil0" points="38207.8,5616.76 38677.36,5147.21 38207.8,4680.87 37739.32,5147.21 "/>
  <polygon class="fil0" points="39571.44,5639.27 40063.51,5147.21 39571.44,4658.35 39079.38,5147.21 "/>
  <polygon class="fil0" points="40930.8,5657.5 41440.02,5147.21 40930.8,4637.98 40420.5,5147.21 "/>
  <polygon class="fil0" points="42292.29,5673.58 42818.67,5147.21 42292.29,4622.98 41768.06,5147.21 "/>
  <polygon class="fil0" points="43655.94,5688.59 44195.17,5147.21 43655.94,4607.97 43116.7,5147.21 "/>
  <polygon class="fil0" points="45015.29,5702.53 45571.68,5147.21 45015.29,4592.96 44461.04,5147.21 "/>
  <polygon class="fil0" points="46378.93,5710.03 46938.54,5147.21 46378.93,4586.53 45817.18,5147.21 "/>
  <polygon class="fil0" points="19831.88,6540.86 19860.82,6510.85 19831.88,6478.69 19797.57,6510.85 "/>
  <polygon class="fil0" points="21189.09,6581.6 21264.13,6510.85 21189.09,6439.02 21119.4,6510.85 "/>
  <polygon class="fil0" points="22552.73,6623.41 22663.15,6510.85 22552.73,6396.14 22436.95,6510.85 "/>
  <polygon class="fil0" points="23912.08,6662.01 24062.17,6510.85 23912.08,6358.62 23764.14,6510.85 "/>
  <polygon class="fil0" points="25273.58,6698.46 25463.33,6510.85 25273.58,6322.17 25085.97,6510.85 "/>
  <polygon class="fil0" points="26637.22,6735.98 26861.28,6510.85 26637.22,6283.57 26407.8,6510.85 "/>
  <polygon class="fil0" points="27996.57,6773.5 28262.44,6510.85 27996.57,6246.05 27733.92,6510.85 "/>
  <polygon class="fil0" points="29360.21,6807.8 29658.24,6510.85 29360.21,6210.67 29060.04,6510.85 "/>
  <polygon class="fil0" points="30721.71,6843.18 31054.05,6510.85 30721.71,6178.51 30390.45,6510.85 "/>
  <polygon class="fil0" points="32081.07,6871.05 32443.42,6510.85 32081.07,6146.35 31719.79,6510.85 "/>
  <polygon class="fil0" points="33444.71,6901.07 33836,6510.85 33444.71,6116.33 33053.41,6510.85 "/>
  <polygon class="fil0" points="34807.28,6933.23 35228.59,6510.85 34807.28,6087.39 34381.67,6510.85 "/>
  <polygon class="fil0" points="36166.63,6958.96 36616.89,6510.85 36166.63,6060.59 35718.51,6510.85 "/>
  <polygon class="fil0" points="37529.2,6984.69 38005.19,6510.85 37529.2,6033.79 37052.14,6510.85 "/>
  <polygon class="fil0" points="38887.48,7008.28 39387.05,6510.85 38887.48,6011.27 38394.34,6510.85 "/>
  <polygon class="fil0" points="40251.12,7027.57 40767.85,6510.85 40251.12,5994.12 39734.4,6510.85 "/>
  <polygon class="fil0" points="41612.62,7045.8 42148.64,6510.85 41612.62,5972.68 41077.67,6510.85 "/>
  <polygon class="fil0" points="42971.97,7060.81 43527.29,6510.85 42971.97,5958.74 42423.08,6510.85 "/>
  <polygon class="fil0" points="44335.61,7075.82 44901.65,6510.85 44335.61,5943.74 43769.57,6510.85 "/>
  <polygon class="fil0" points="45698.18,7088.68 46274.94,6510.85 45698.18,5931.94 45118.21,6510.85 "/>
  <polygon class="fil0" points="19147.91,7893.79 19169.35,7871.27 19147.91,7849.83 19125.4,7871.27 "/>
  <polygon class="fil0" points="20510.48,7935.6 20572.66,7871.27 20510.48,7806.95 20445.09,7871.27 "/>
  <polygon class="fil0" points="21868.76,7976.33 21975.97,7871.27 21868.76,7766.21 21766.92,7871.27 "/>
  <polygon class="fil0" points="23232.4,8014.93 23377.13,7871.27 23232.4,7726.55 23088.75,7871.27 "/>
  <polygon class="fil0" points="24593.9,8056.74 24780.44,7871.27 24593.9,7686.88 24409.51,7871.27 "/>
  <polygon class="fil0" points="25953.26,8094.26 26179.46,7871.27 25953.26,7648.29 25731.34,7871.27 "/>
  <polygon class="fil0" points="27316.9,8131.78 27579.55,7871.27 27316.9,7609.69 27058.53,7871.27 "/>
  <polygon class="fil0" points="28679.47,8167.16 28972.13,7871.27 28679.47,7577.53 28384.65,7871.27 "/>
  <polygon class="fil0" points="30039.89,8199.32 30367.94,7871.27 30039.89,7542.15 29710.77,7871.27 "/>
  <polygon class="fil0" points="31401.39,8233.62 31763.74,7871.27 31401.39,7509.99 31040.11,7871.27 "/>
  <polygon class="fil0" points="32765.03,8267.93 33159.54,7871.27 32765.03,7474.62 32365.16,7871.27 "/>
  <polygon class="fil0" points="34124.38,8293.66 34548.91,7871.27 34124.38,7447.81 33702,7871.27 "/>
  <polygon class="fil0" points="35486.95,8323.68 35940.43,7871.27 35486.95,7417.8 35033.48,7871.27 "/>
  <polygon class="fil0" points="36850.59,8351.55 37325.51,7871.27 36850.59,7391 36368.17,7871.27 "/>
  <polygon class="fil0" points="38207.8,8374.06 38711.66,7871.27 38207.8,7369.56 37705.01,7871.27 "/>
  <polygon class="fil0" points="39571.44,8395.5 40095.67,7871.27 39571.44,7347.04 39047.21,7871.27 "/>
  <polygon class="fil0" points="40930.8,8413.73 41477.54,7871.27 40930.8,7327.75 40387.27,7871.27 "/>
  <polygon class="fil0" points="42292.29,8431.95 42850.83,7871.27 42292.29,7311.66 41735.9,7871.27 "/>
  <polygon class="fil0" points="43655.94,8445.89 44227.34,7871.27 43655.94,7296.66 43080.25,7871.27 "/>
  <polygon class="fil0" points="45015.29,8456.61 45601.7,7871.27 45015.29,7287.01 44431.02,7871.27 "/>
  <polygon class="fil0" points="46378.93,8468.4 46977.13,7871.27 46378.93,7275.22 45780.73,7871.27 "/>
  <polygon class="fil0" points="18468.24,9246.71 18482.17,9231.7 18468.24,9217.76 18453.23,9231.7 "/>
  <polygon class="fil0" points="19831.88,9289.59 19885.48,9231.7 19831.88,9177.02 19770.77,9231.7 "/>
  <polygon class="fil0" points="21189.09,9329.25 21289.86,9231.7 21189.09,9134.14 21093.67,9231.7 "/>
  <polygon class="fil0" points="22552.73,9369.99 22688.88,9231.7 22552.73,9097.69 22416.58,9231.7 "/>
  <polygon class="fil0" points="23912.08,9409.66 24088.97,9231.7 23912.08,9054.81 23734.12,9231.7 "/>
  <polygon class="fil0" points="25273.58,9448.25 25490.13,9231.7 25273.58,9018.36 25061.31,9231.7 "/>
  <polygon class="fil0" points="26637.22,9484.7 26889.15,9231.7 26637.22,8979.77 26383.15,9231.7 "/>
  <polygon class="fil0" points="27996.57,9523.29 28289.24,9231.7 27996.57,8942.25 27708.19,9231.7 "/>
  <polygon class="fil0" points="29360.21,9557.6 29683.97,9231.7 29360.21,8906.87 29035.38,9231.7 "/>
  <polygon class="fil0" points="30721.71,9595.12 31084.06,9231.7 30721.71,8870.42 30360.43,9231.7 "/>
  <polygon class="fil0" points="32081.07,9625.14 32475.58,9231.7 32081.07,8840.4 31689.77,9231.7 "/>
  <polygon class="fil0" points="33444.71,9655.16 33864.95,9231.7 33444.71,8809.31 33019.1,9231.7 "/>
  <polygon class="fil0" points="34807.28,9686.24 35257.53,9231.7 34807.28,8780.37 34351.66,9231.7 "/>
  <polygon class="fil0" points="36166.63,9711.97 36646.91,9231.7 36166.63,8753.57 35685.28,9231.7 "/>
  <polygon class="fil0" points="37529.2,9737.7 38035.2,9231.7 37529.2,8725.69 37023.19,9231.7 "/>
  <polygon class="fil0" points="38887.48,9762.36 39420.29,9231.7 38887.48,8704.25 38360.03,9231.7 "/>
  <polygon class="fil0" points="40251.12,9780.58 40797.86,9231.7 40251.12,8686.03 39704.38,9231.7 "/>
  <polygon class="fil0" points="41612.62,9799.88 42178.66,9231.7 41612.62,8667.8 41044.43,9231.7 "/>
  <polygon class="fil0" points="42971.97,9813.82 43555.16,9231.7 42971.97,8650.65 42393.07,9231.7 "/>
  <polygon class="fil0" points="44335.61,9824.54 44930.6,9231.7 44335.61,8639.93 43744.92,9231.7 "/>
  <polygon class="fil0" points="45698.18,9836.33 46300.67,9231.7 45698.18,8628.14 45093.55,9231.7 "/>
  <polygon class="fil0" points="17788.56,10602.84 17796.06,10595.34 17788.56,10586.76 17781.06,10595.34 "/>
  <polygon class="fil0" points="19147.91,10638.22 19191.87,10595.34 19147.91,10548.17 19102.89,10595.34 "/>
  <polygon class="fil0" points="20510.48,10681.1 20595.17,10595.34 20510.48,10508.5 20420.43,10595.34 "/>
  <polygon class="fil0" points="21868.76,10722.91 21998.48,10595.34 21868.76,10465.62 21743.33,10595.34 "/>
  <polygon class="fil0" points="23232.4,10761.51 23397.5,10595.34 23232.4,10429.17 23065.17,10595.34 "/>
  <polygon class="fil0" points="24593.9,10801.17 24800.81,10595.34 24593.9,10386.29 24387,10595.34 "/>
  <polygon class="fil0" points="25953.26,10839.77 26201.97,10595.34 25953.26,10348.77 25710.97,10595.34 "/>
  <polygon class="fil0" points="27316.9,10878.36 27602.06,10595.34 27316.9,10310.18 27033.88,10595.34 "/>
  <polygon class="fil0" points="28679.47,10914.81 29001.08,10595.34 28679.47,10273.73 28357.85,10595.34 "/>
  <polygon class="fil0" points="30039.89,10950.19 30392.59,10595.34 30039.89,10238.35 29683.97,10595.34 "/>
  <polygon class="fil0" points="31401.39,10982.35 31790.54,10595.34 31401.39,10206.19 31014.38,10595.34 "/>
  <polygon class="fil0" points="32765.03,11013.44 33182.06,10595.34 32765.03,10176.17 32344.79,10595.34 "/>
  <polygon class="fil0" points="34124.38,11043.45 34573.57,10595.34 34124.38,10144.01 33677.34,10595.34 "/>
  <polygon class="fil0" points="35486.95,11072.4 35967.23,10595.34 35486.95,10113.99 35006.68,10595.34 "/>
  <polygon class="fil0" points="36850.59,11101.34 37352.31,10595.34 36850.59,10089.33 36343.52,10595.34 "/>
  <polygon class="fil0" points="38207.8,11122.79 38736.32,10595.34 38207.8,10065.75 37680.36,10595.34 "/>
  <polygon class="fil0" points="39571.44,11142.08 40118.19,10595.34 39571.44,10046.45 39024.7,10595.34 "/>
  <polygon class="fil0" points="40930.8,11160.31 41498.98,10595.34 40930.8,10028.23 40365.83,10595.34 "/>
  <polygon class="fil0" points="42292.29,11177.46 42880.85,10595.34 42292.29,10008.93 41709.1,10595.34 "/>
  <polygon class="fil0" points="43655.94,11191.4 44251.99,10595.34 43655.94,9999.28 43057.74,10595.34 "/>
  <polygon class="fil0" points="45015.29,11206.4 45628.5,10595.34 45015.29,9982.13 44405.3,10595.34 "/>
  <path class="fil0" d="M46378.93 11220.34c347.34,0 626.08,-280.87 626.08,-625 0,-346.27 -278.74,-627.15 -626.08,-627.15 -347.34,0 -628.22,280.88 -628.22,627.15 0,344.13 280.88,625 628.22,625z"/>
  <polygon class="fil0" points="18468.24,11985.78 18497.18,11956.84 18468.24,11926.82 18438.22,11956.84 "/>
  <polygon class="fil0" points="19831.88,12027.59 19900.49,11956.84 19831.88,11883.94 19755.76,11956.84 "/>
  <polygon class="fil0" points="21189.09,12068.33 21303.8,11956.84 21189.09,11842.13 21075.45,11956.84 "/>
  <polygon class="fil0" points="22552.73,12111.21 22708.17,11956.84 22552.73,11801.39 22397.28,11956.84 "/>
  <polygon class="fil0" points="23912.08,12150.88 24111.48,11956.84 23912.08,11759.58 23714.82,11956.84 "/>
  <polygon class="fil0" points="25273.58,12189.47 25507.28,11956.84 25273.58,11720.99 25042.02,11956.84 "/>
  <polygon class="fil0" points="26637.22,12231.28 26910.59,11956.84 26637.22,11680.25 26359.56,11956.84 "/>
  <polygon class="fil0" points="27996.57,12266.66 28306.39,11956.84 27996.57,11645.94 27691.04,11956.84 "/>
  <polygon class="fil0" points="29360.21,12303.11 29707.56,11956.84 29360.21,11609.49 29012.87,11956.84 "/>
  <polygon class="fil0" points="30721.71,12336.34 31101.22,11956.84 30721.71,11574.12 30337.92,11956.84 "/>
  <polygon class="fil0" points="32081.07,12371.72 32499.16,11956.84 32081.07,11540.88 31667.26,11956.84 "/>
  <polygon class="fil0" points="33444.71,12400.66 33890.68,11956.84 33444.71,11509.79 32997.66,11956.84 "/>
  <polygon class="fil0" points="34807.28,12430.68 35280.05,11956.84 34807.28,11478.7 34330.22,11956.84 "/>
  <polygon class="fil0" points="36166.63,12458.55 36668.35,11956.84 36166.63,11454.05 35663.84,11956.84 "/>
  <polygon class="fil0" points="37529.2,12481.07 38052.36,11956.84 37529.2,11431.53 37004.97,11956.84 "/>
  <polygon class="fil0" points="38887.48,12502.51 39438.51,11956.84 38887.48,11407.95 38341.81,11956.84 "/>
  <polygon class="fil0" points="40251.12,12521.8 40817.16,11956.84 40251.12,11388.65 39687.23,11956.84 "/>
  <polygon class="fil0" points="41612.62,12541.1 42196.88,11956.84 41612.62,11369.36 41026.21,11956.84 "/>
  <polygon class="fil0" points="42971.97,12556.11 43574.46,11956.84 42971.97,11356.49 42373.77,11956.84 "/>
  <polygon class="fil0" points="44335.61,12571.12 44952.04,11956.84 44335.61,11340.41 43720.26,11956.84 "/>
  <path class="fil0" d="M45698.18 12590.42c351.63,0 631.44,-284.1 631.44,-633.58 0,-351.63 -279.81,-635.73 -631.44,-635.73 -350.56,0 -635.72,284.1 -635.72,635.73 0,349.48 285.16,633.58 635.72,633.58z"/>
  <polygon class="fil0" points="17788.56,13332.27 17802.5,13317.26 17788.56,13302.25 17769.26,13317.26 "/>
  <polygon class="fil0" points="19147.91,13377.3 19209.02,13317.26 19147.91,13256.16 19087.88,13317.26 "/>
  <polygon class="fil0" points="20510.48,13419.11 20610.18,13317.26 20510.48,13215.42 20406.49,13317.26 "/>
  <polygon class="fil0" points="21868.76,13457.7 22009.2,13317.26 21868.76,13177.9 21732.61,13317.26 "/>
  <polygon class="fil0" points="23232.4,13497.37 23412.51,13317.26 23232.4,13135.01 23050.16,13317.26 "/>
  <polygon class="fil0" points="24593.9,13540.25 24815.82,13317.26 24593.9,13095.35 24369.84,13317.26 "/>
  <polygon class="fil0" points="25953.26,13576.7 26215.91,13317.26 25953.26,13056.75 25694.89,13317.26 "/>
  <polygon class="fil0" points="27316.9,13615.29 27617.07,13317.26 27316.9,13020.31 27018.87,13317.26 "/>
  <polygon class="fil0" points="28679.47,13653.88 29016.09,13317.26 28679.47,12980.64 28343.92,13317.26 "/>
  <polygon class="fil0" points="30039.89,13692.48 30416.18,13317.26 30039.89,12944.19 29665.75,13317.26 "/>
  <polygon class="fil0" points="31401.39,13721.42 31805.55,13317.26 31401.39,12912.03 31000.44,13317.26 "/>
  <polygon class="fil0" points="32765.03,13754.66 33199.21,13317.26 32765.03,12879.87 32325.49,13317.26 "/>
  <polygon class="fil0" points="34124.38,13786.82 34592.87,13317.26 34124.38,12849.85 33654.83,13317.26 "/>
  <polygon class="fil0" points="35486.95,13811.47 35981.17,13317.26 35486.95,12821.98 34991.67,13317.26 "/>
  <polygon class="fil0" points="36850.59,13838.28 37370.54,13317.26 36850.59,12797.32 36325.29,13317.26 "/>
  <polygon class="fil0" points="38207.8,13861.86 38751.33,13317.26 38207.8,12774.81 37665.35,13317.26 "/>
  <polygon class="fil0" points="39571.44,13884.37 40135.34,13317.26 39571.44,12750.15 39002.19,13317.26 "/>
  <polygon class="fil0" points="40930.8,13901.53 41517.21,13317.26 40930.8,12731.93 40346.53,13317.26 "/>
  <polygon class="fil0" points="42292.29,13916.54 42894.78,13317.26 42292.29,12716.92 41694.09,13317.26 "/>
  <path class="fil0" d="M43655.94 13935.83c339.83,0 617.49,-277.66 617.49,-618.57 0,-341.98 -277.66,-619.64 -617.49,-619.64 -344.13,0 -620.72,277.66 -620.72,619.64 0,340.91 276.59,618.57 620.72,618.57z"/>
  <path class="fil0" d="M45015.29 13956.2c354.85,0 640.01,-286.24 640.01,-638.94 0,-353.77 -285.16,-636.79 -640.01,-636.79 -350.56,0 -635.72,283.02 -635.72,636.79 0,352.7 285.16,638.94 635.72,638.94z"/>
  <path class="fil0" d="M46378.93 13978.71c364.5,0 660.38,-296.95 660.38,-661.45 0,-363.42 -295.88,-660.38 -660.38,-660.38 -366.64,0 -661.45,296.96 -661.45,660.38 0,364.5 294.81,661.45 661.45,661.45z"/>
  <polygon class="fil0" points="17105.67,14681.98 17108.88,14677.69 17105.67,14674.47 17101.38,14677.69 "/>
  <polygon class="fil0" points="18468.24,14720.57 18508.97,14677.69 18468.24,14638.02 18428.57,14677.69 "/>
  <polygon class="fil0" points="19831.88,14761.31 19911.21,14677.69 19831.88,14595.14 19746.11,14677.69 "/>
  <polygon class="fil0" points="21189.09,14803.12 21314.52,14677.69 21189.09,14553.33 21063.66,14677.69 "/>
  <polygon class="fil0" points="22552.73,14844.93 22717.82,14677.69 22552.73,14512.59 22385.49,14677.69 "/>
  <polygon class="fil0" points="23912.08,14885.66 24121.13,14677.69 23912.08,14470.78 23705.18,14677.69 "/>
  <polygon class="fil0" points="25273.58,14924.26 25522.29,14677.69 25273.58,14434.33 25031.3,14677.69 "/>
  <polygon class="fil0" points="26637.22,14966.07 26922.38,14677.69 26637.22,14391.45 26348.84,14677.69 "/>
  <polygon class="fil0" points="27996.57,15002.52 28321.4,14677.69 27996.57,14355 27671.74,14677.69 "/>
  <polygon class="fil0" points="29360.21,15037.89 29717.21,14677.69 29360.21,14319.62 29001.08,14677.69 "/>
  <polygon class="fil0" points="30721.71,15072.2 31114.08,14677.69 30721.71,14286.39 30328.27,14677.69 "/>
  <polygon class="fil0" points="32081.07,15104.36 32509.88,14677.69 32081.07,14251.01 31655.46,14677.69 "/>
  <polygon class="fil0" points="33444.71,15135.45 33902.47,14677.69 33444.71,14222.07 32986.94,14677.69 "/>
  <polygon class="fil0" points="34807.28,15165.47 35291.84,14677.69 34807.28,14193.12 34319.5,14677.69 "/>
  <polygon class="fil0" points="36166.63,15191.2 36679.07,14677.69 36166.63,14165.25 35654.19,14677.69 "/>
  <polygon class="fil0" points="37529.2,15218 38067.37,14677.69 37529.2,14138.45 36991.03,14677.69 "/>
  <polygon class="fil0" points="38887.48,15240.51 39453.52,14677.69 38887.48,14115.94 38327.87,14677.69 "/>
  <polygon class="fil0" points="40251.12,15259.81 40834.31,14677.69 40251.12,14098.78 39672.22,14677.69 "/>
  <polygon class="fil0" points="41612.62,15274.82 42208.68,14677.69 41612.62,14080.56 41014.42,14677.69 "/>
  <polygon class="fil0" points="42971.97,15295.19 43589.47,14677.69 42971.97,14063.41 42360.91,14677.69 "/>
  <path class="fil0" d="M44335.61 15312.34c350.56,0 635.73,-283.02 635.73,-634.65 0,-348.42 -285.17,-633.58 -635.73,-633.58 -349.48,0 -634.65,285.16 -634.65,633.58 0,351.63 285.17,634.65 634.65,634.65z"/>
  <path class="fil0" d="M45698.18 15339.14c361.28,0 661.45,-294.81 661.45,-661.45 0,-363.43 -300.17,-659.31 -661.45,-659.31 -365.57,0 -660.38,295.88 -660.38,659.31 0,366.64 294.81,661.45 660.38,661.45z"/>
  <polygon class="fil0" points="17788.56,16062.77 17810,16041.33 17788.56,16017.74 17762.83,16041.33 "/>
  <polygon class="fil0" points="19147.91,16103.51 19214.38,16041.33 19147.91,15975.93 19085.73,16041.33 "/>
  <polygon class="fil0" points="20510.48,16146.39 20614.47,16041.33 20510.48,15933.05 20403.28,16041.33 "/>
  <polygon class="fil0" points="21868.76,16186.05 22017.78,16041.33 21868.76,15893.39 21725.11,16041.33 "/>
  <polygon class="fil0" points="23232.4,16228.94 23421.08,16041.33 23232.4,15850.5 23044.8,16041.33 "/>
  <polygon class="fil0" points="24593.9,16269.67 24824.39,16041.33 24593.9,15808.69 24362.34,16041.33 "/>
  <polygon class="fil0" points="25953.26,16308.27 26223.41,16041.33 25953.26,15773.32 25689.53,16041.33 "/>
  <polygon class="fil0" points="27316.9,16350.08 27626.72,16041.33 27316.9,15730.44 27007.08,16041.33 "/>
  <polygon class="fil0" points="28679.47,16384.38 29023.59,16041.33 28679.47,15697.2 28336.41,16041.33 "/>
  <polygon class="fil0" points="30039.89,16420.83 30422.61,16041.33 30039.89,15658.61 29658.24,16041.33 "/>
  <polygon class="fil0" points="31401.39,16456.21 31815.2,16041.33 31401.39,15624.3 30988.65,16041.33 "/>
  <polygon class="fil0" points="32765.03,16486.23 33208.86,16041.33 32765.03,15593.21 32317.99,16041.33 "/>
  <polygon class="fil0" points="34124.38,16515.17 34600.37,16041.33 34124.38,15564.27 33647.32,16041.33 "/>
  <polygon class="fil0" points="35486.95,16546.26 35991.89,16041.33 35486.95,15534.25 34979.88,16041.33 "/>
  <polygon class="fil0" points="36850.59,16568.77 37376.97,16041.33 36850.59,15510.67 36316.72,16041.33 "/>
  <polygon class="fil0" points="38207.8,16595.58 38762.05,16041.33 38207.8,15483.86 37655.7,16041.33 "/>
  <polygon class="fil0" points="39571.44,16612.73 40144.99,16041.33 39571.44,15466.71 38994.68,16041.33 "/>
  <polygon class="fil0" points="40930.8,16633.1 41525.78,16041.33 40930.8,15448.49 40339.03,16041.33 "/>
  <polygon class="fil0" points="42292.29,16652.39 42905.5,16041.33 42292.29,15429.19 41679.09,16041.33 "/>
  <path class="fil0" d="M43655.94 16670.62c347.34,0 628.21,-281.95 628.21,-629.29 0,-350.56 -280.87,-632.51 -628.21,-632.51 -349.49,0 -630.37,281.95 -630.37,632.51 0,347.34 280.88,629.29 630.37,629.29z"/>
  <path class="fil0" d="M45015.29 16697.42c364.49,0 657.16,-294.81 657.16,-656.09 0,-363.42 -292.67,-657.17 -657.16,-657.17 -362.35,0 -657.16,293.75 -657.16,657.17 0,361.28 294.81,656.09 657.16,656.09z"/>
  <path class="fil0" d="M46378.93 16728.51c379.5,0 685.04,-308.75 685.04,-687.18 0,-381.65 -305.54,-687.18 -685.04,-687.18 -381.65,0 -687.18,305.53 -687.18,687.18 0,378.43 305.53,687.18 687.18,687.18z"/>
  <polygon class="fil0" points="17105.67,17409.26 17112.1,17401.75 17105.67,17394.25 17097.09,17401.75 "/>
  <polygon class="fil0" points="18468.24,17447.85 18512.19,17401.75 18468.24,17355.66 18423.21,17401.75 "/>
  <polygon class="fil0" points="19831.88,17488.59 19915.5,17401.75 19831.88,17314.92 19740.75,17401.75 "/>
  <polygon class="fil0" points="21189.09,17531.47 21318.8,17401.75 21189.09,17272.04 21060.44,17401.75 "/>
  <polygon class="fil0" points="22552.73,17571.14 22722.11,17401.75 22552.73,17232.37 22383.34,17401.75 "/>
  <polygon class="fil0" points="23912.08,17611.87 24125.42,17401.75 23912.08,17191.63 23700.89,17401.75 "/>
  <polygon class="fil0" points="25273.58,17651.54 25524.44,17401.75 25273.58,17151.97 25027.01,17401.75 "/>
  <polygon class="fil0" points="26637.22,17691.21 26925.6,17401.75 26637.22,17112.3 26344.55,17401.75 "/>
  <polygon class="fil0" points="27996.57,17729.8 28325.69,17401.75 27996.57,17073.71 27667.46,17401.75 "/>
  <polygon class="fil0" points="29360.21,17764.1 29722.57,17401.75 29360.21,17039.4 28997.86,17401.75 "/>
  <polygon class="fil0" points="30721.71,17801.63 31120.51,17401.75 30721.71,17001.88 30318.62,17401.75 "/>
  <polygon class="fil0" points="32081.07,17831.64 32514.17,17401.75 32081.07,16971.86 31652.25,17401.75 "/>
  <polygon class="fil0" points="33444.71,17865.95 33908.9,17401.75 33444.71,16937.56 32978.37,17401.75 "/>
  <polygon class="fil0" points="34807.28,17892.75 35293.98,17401.75 34807.28,16910.76 34315.21,17401.75 "/>
  <polygon class="fil0" points="36166.63,17922.77 36687.64,17401.75 36166.63,16880.74 35644.54,17401.75 "/>
  <polygon class="fil0" points="37529.2,17944.21 38071.65,17401.75 37529.2,16859.3 36985.67,17401.75 "/>
  <polygon class="fil0" points="38887.48,17968.87 39455.66,17401.75 38887.48,16834.64 38322.51,17401.75 "/>
  <polygon class="fil0" points="40251.12,17987.09 40838.6,17401.75 40251.12,16816.42 39667.93,17401.75 "/>
  <polygon class="fil0" points="41612.62,18001.03 42210.82,17401.75 41612.62,16802.48 41012.27,17401.75 "/>
  <path class="fil0" d="M42971.97 18023.54c347.34,0 625,-278.73 625,-621.79 0,-343.05 -277.66,-621.78 -625,-621.78 -343.05,0 -620.71,278.73 -620.71,621.78 0,343.06 277.66,621.79 620.71,621.79z"/>
  <path class="fil0" d="M44335.61 18049.27c359.14,0 647.52,-291.6 647.52,-647.52 0,-355.92 -288.38,-647.51 -647.52,-647.51 -359.13,0 -645.37,291.59 -645.37,647.51 0,355.92 286.24,647.52 645.37,647.52z"/>
  <path class="fil0" d="M45698.18 18073.93c370.93,0 671.1,-301.25 671.1,-672.18 0,-370.92 -300.17,-672.17 -671.1,-672.17 -373.07,0 -671.1,301.25 -671.1,672.17 0,370.93 298.03,672.18 671.1,672.18z"/>
  <polygon class="fil0" points="17788.56,18785.76 17810,18762.18 17788.56,18740.74 17762.83,18762.18 "/>
  <polygon class="fil0" points="19147.91,18827.57 19214.38,18762.18 19147.91,18700 19085.73,18762.18 "/>
  <polygon class="fil0" points="20510.48,18870.46 20614.47,18762.18 20510.48,18657.12 20403.28,18762.18 "/>
  <polygon class="fil0" points="21868.76,18910.12 22017.78,18762.18 21868.76,18617.45 21725.11,18762.18 "/>
  <polygon class="fil0" points="23232.4,18953 23421.08,18762.18 23232.4,18574.57 23044.8,18762.18 "/>
  <polygon class="fil0" points="24593.9,18994.81 24824.39,18762.18 24593.9,18533.83 24362.34,18762.18 "/>
  <polygon class="fil0" points="25953.26,19034.48 26228.77,18762.18 25953.26,18492.02 25684.17,18762.18 "/>
  <polygon class="fil0" points="27316.9,19073.07 27626.72,18762.18 27316.9,18453.43 27007.08,18762.18 "/>
  <polygon class="fil0" points="28679.47,19106.31 29023.59,18762.18 28679.47,18419.12 28336.41,18762.18 "/>
  <polygon class="fil0" points="30039.89,19144.9 30422.61,18762.18 30039.89,18382.68 29658.24,18762.18 "/>
  <polygon class="fil0" points="31401.39,19179.2 31815.2,18762.18 31401.39,18347.3 30988.65,18762.18 "/>
  <polygon class="fil0" points="32765.03,19210.29 33208.86,18762.18 32765.03,18317.28 32317.99,18762.18 "/>
  <polygon class="fil0" points="34124.38,19239.24 34600.37,18762.18 34124.38,18288.34 33647.32,18762.18 "/>
  <polygon class="fil0" points="35486.95,19269.26 35991.89,18762.18 35486.95,18257.25 34979.88,18762.18 "/>
  <polygon class="fil0" points="36850.59,19297.13 37382.33,18762.18 36850.59,18230.44 36313.5,18762.18 "/>
  <polygon class="fil0" points="38207.8,19319.64 38762.05,18762.18 38207.8,18207.93 37655.7,18762.18 "/>
  <polygon class="fil0" points="39571.44,19336.8 40144.99,18762.18 39571.44,18190.78 38994.68,18762.18 "/>
  <polygon class="fil0" points="40930.8,19355.02 41525.78,18762.18 40930.8,18170.41 40339.03,18762.18 "/>
  <polygon class="fil0" points="42292.29,19374.32 42905.5,18762.18 42292.29,18151.11 41679.09,18762.18 "/>
  <path class="fil0" d="M43655.94 19393.61c347.34,0 628.21,-280.87 628.21,-631.43 0,-347.34 -280.87,-629.29 -628.21,-629.29 -349.49,0 -630.37,281.95 -630.37,629.29 0,350.56 280.88,631.43 630.37,631.43z"/>
  <path class="fil0" d="M45015.29 19422.56c364.49,0 657.16,-296.96 657.16,-660.38 0,-361.28 -292.67,-656.09 -657.16,-656.09 -362.35,0 -657.16,294.81 -657.16,656.09 0,363.42 294.81,660.38 657.16,660.38z"/>
  <path class="fil0" d="M46378.93 19450.43c379.5,0 685.04,-306.6 685.04,-688.25 0,-378.43 -305.54,-687.18 -685.04,-687.18 -381.65,0 -687.18,308.75 -687.18,687.18 0,381.65 305.53,688.25 687.18,688.25z"/>
  <polygon class="fil0" points="17105.67,20126.89 17108.88,20124.75 17105.67,20120.46 17101.38,20124.75 "/>
  <polygon class="fil0" points="18468.24,20168.7 18508.97,20124.75 18468.24,20082.94 18428.57,20124.75 "/>
  <polygon class="fil0" points="19831.88,20208.37 19911.21,20124.75 19831.88,20042.2 19746.11,20124.75 "/>
  <polygon class="fil0" points="21189.09,20250.18 21314.52,20124.75 21189.09,20001.46 21063.66,20124.75 "/>
  <polygon class="fil0" points="22552.73,20289.84 22717.82,20124.75 22552.73,19957.51 22385.49,20124.75 "/>
  <polygon class="fil0" points="23912.08,20333.8 24121.13,20124.75 23912.08,19917.84 23705.18,20124.75 "/>
  <polygon class="fil0" points="25273.58,20371.32 25522.29,20124.75 25273.58,19879.25 25031.3,20124.75 "/>
  <polygon class="fil0" points="26637.22,20412.06 26922.38,20124.75 26637.22,19839.58 26348.84,20124.75 "/>
  <polygon class="fil0" points="27996.57,20448.51 28321.4,20124.75 27996.57,19799.92 27671.74,20124.75 "/>
  <polygon class="fil0" points="29360.21,20481.74 29717.21,20124.75 29360.21,19765.61 29001.08,20124.75 "/>
  <polygon class="fil0" points="30721.71,20523.55 31116.22,20124.75 30721.71,19728.09 30322.91,20124.75 "/>
  <polygon class="fil0" points="32081.07,20552.49 32509.88,20124.75 32081.07,19699.15 31655.46,20124.75 "/>
  <polygon class="fil0" points="33444.71,20581.44 33902.47,20124.75 33444.71,19669.13 32986.94,20124.75 "/>
  <polygon class="fil0" points="34807.28,20610.38 35291.84,20124.75 34807.28,19635.9 34319.5,20124.75 "/>
  <polygon class="fil0" points="36166.63,20637.19 36679.07,20124.75 36166.63,19610.17 35654.19,20124.75 "/>
  <polygon class="fil0" points="37529.2,20661.84 38067.37,20124.75 37529.2,19585.51 36991.03,20124.75 "/>
  <polygon class="fil0" points="38887.48,20688.64 39453.52,20124.75 38887.48,19563 38327.87,20124.75 "/>
  <polygon class="fil0" points="40251.12,20706.87 40834.31,20124.75 40251.12,19543.7 39672.22,20124.75 "/>
  <polygon class="fil0" points="41612.62,20722.95 42208.68,20124.75 41612.62,19528.69 41014.42,20124.75 "/>
  <polygon class="fil0" points="42971.97,20740.1 43589.47,20124.75 42971.97,19511.54 42360.91,20124.75 "/>
  <path class="fil0" d="M44335.61 20762.62c350.56,0 637.87,-284.1 637.87,-637.87 0,-351.63 -287.31,-635.72 -637.87,-635.72 -349.48,0 -640.01,284.09 -640.01,635.72 0,353.77 290.53,637.87 640.01,637.87z"/>
  <path class="fil0" d="M45698.18 20785.13c361.28,0 661.45,-295.89 661.45,-660.38 0,-366.64 -300.17,-662.53 -661.45,-662.53 -365.57,0 -660.38,295.89 -660.38,662.53 0,364.49 294.81,660.38 660.38,660.38z"/>
  <polygon class="fil0" points="17788.56,21501.25 17802.5,21486.25 17788.56,21471.24 17769.26,21486.25 "/>
  <polygon class="fil0" points="19147.91,21545.21 19209.02,21486.25 19147.91,21427.28 19087.88,21486.25 "/>
  <polygon class="fil0" points="20510.48,21590.23 20610.18,21486.25 20510.48,21383.33 20406.49,21486.25 "/>
  <polygon class="fil0" points="21868.76,21626.68 22009.2,21486.25 21868.76,21345.81 21732.61,21486.25 "/>
  <polygon class="fil0" points="23232.4,21668.49 23412.51,21486.25 23232.4,21306.14 23050.16,21486.25 "/>
  <polygon class="fil0" points="24593.9,21708.16 24815.82,21486.25 24593.9,21265.4 24369.84,21486.25 "/>
  <polygon class="fil0" points="25953.26,21744.61 26215.91,21486.25 25953.26,21223.59 25694.89,21486.25 "/>
  <polygon class="fil0" points="27316.9,21789.63 27619.21,21486.25 27316.9,21183.93 27014.58,21486.25 "/>
  <polygon class="fil0" points="28679.47,21822.87 29016.09,21486.25 28679.47,21149.62 28343.92,21486.25 "/>
  <polygon class="fil0" points="30039.89,21859.32 30416.18,21486.25 30039.89,21114.25 29665.75,21486.25 "/>
  <polygon class="fil0" points="31401.39,21892.55 31807.69,21486.25 31401.39,21079.94 30995.08,21486.25 "/>
  <polygon class="fil0" points="32765.03,21922.57 33199.21,21486.25 32765.03,21047.78 32325.49,21486.25 "/>
  <polygon class="fil0" points="34124.38,21954.73 34592.87,21486.25 34124.38,21016.69 33654.83,21486.25 "/>
  <polygon class="fil0" points="35486.95,21981.53 35981.17,21486.25 35486.95,20992.03 34991.67,21486.25 "/>
  <polygon class="fil0" points="36850.59,22006.19 37370.54,21486.25 36850.59,20965.23 36325.29,21486.25 "/>
  <polygon class="fil0" points="38207.8,22032.99 38755.62,21486.25 38207.8,20939.5 37661.06,21486.25 "/>
  <polygon class="fil0" points="39571.44,22051.21 40135.34,21486.25 39571.44,20920.21 39002.19,21486.25 "/>
  <polygon class="fil0" points="40930.8,22070.51 41517.21,21486.25 40930.8,20898.76 40346.53,21486.25 "/>
  <polygon class="fil0" points="42292.29,22084.45 42894.78,21486.25 42292.29,20884.83 41694.09,21486.25 "/>
  <path class="fil0" d="M43655.94 22106.96c339.83,0 617.49,-276.59 617.49,-620.71 0,-341.99 -277.66,-619.65 -617.49,-619.65 -344.13,0 -620.72,277.66 -620.72,619.65 0,344.12 276.59,620.71 620.72,620.71z"/>
  <path class="fil0" d="M45015.29 22125.18c354.85,0 640.01,-288.38 640.01,-638.93 0,-351.64 -285.16,-638.94 -640.01,-638.94 -350.56,0 -635.72,287.3 -635.72,638.94 0,350.55 285.16,638.93 635.72,638.93z"/>
  <path class="fil0" d="M46378.93 22146.63c364.5,0 660.38,-293.74 660.38,-660.38 0,-364.5 -295.88,-661.46 -660.38,-661.46 -366.64,0 -661.45,296.96 -661.45,661.46 0,366.64 294.81,660.38 661.45,660.38z"/>
  <polygon class="fil0" points="18468.24,22877.76 18497.18,22849.89 18468.24,22816.65 18438.22,22849.89 "/>
  <polygon class="fil0" points="19831.88,22919.57 19900.49,22849.89 19831.88,22775.92 19755.76,22849.89 "/>
  <polygon class="fil0" points="21189.09,22961.38 21303.8,22849.89 21189.09,22735.18 21075.45,22849.89 "/>
  <polygon class="fil0" points="22552.73,23001.05 22708.17,22849.89 22552.73,22693.37 22397.28,22849.89 "/>
  <polygon class="fil0" points="23912.08,23045 24111.48,22849.89 23912.08,22650.49 23714.82,22849.89 "/>
  <polygon class="fil0" points="25273.58,23082.52 25507.28,22849.89 25273.58,22614.04 25042.02,22849.89 "/>
  <polygon class="fil0" points="26637.22,23123.26 26910.59,22849.89 26637.22,22572.23 26359.56,22849.89 "/>
  <polygon class="fil0" points="27996.57,23158.64 28310.68,22849.89 27996.57,22535.78 27686.75,22849.89 "/>
  <polygon class="fil0" points="29360.21,23197.23 29707.56,22849.89 29360.21,22501.47 29012.87,22849.89 "/>
  <polygon class="fil0" points="30721.71,23229.39 31101.22,22849.89 30721.71,22466.09 30337.92,22849.89 "/>
  <polygon class="fil0" points="32081.07,23262.62 32499.16,22849.89 32081.07,22431.79 31667.26,22849.89 "/>
  <polygon class="fil0" points="33444.71,23293.71 33890.68,22849.89 33444.71,22402.84 32997.66,22849.89 "/>
  <polygon class="fil0" points="34807.28,23322.66 35280.05,22849.89 34807.28,22372.83 34330.22,22849.89 "/>
  <polygon class="fil0" points="36166.63,23350.53 36668.35,22849.89 36166.63,22348.17 35663.84,22849.89 "/>
  <polygon class="fil0" points="37529.2,23377.33 38056.64,22849.89 37529.2,22317.08 37000.68,22849.89 "/>
  <polygon class="fil0" points="38887.48,23399.85 39441.73,22849.89 38887.48,22295.64 38337.52,22849.89 "/>
  <polygon class="fil0" points="40251.12,23417 40819.3,22849.89 40251.12,22277.41 39681.86,22849.89 "/>
  <polygon class="fil0" points="41612.62,23434.15 42196.88,22849.89 41612.62,22262.41 41026.21,22849.89 "/>
  <polygon class="fil0" points="42971.97,23447.02 43574.46,22849.89 42971.97,22247.4 42373.77,22849.89 "/>
  <path class="fil0" d="M44335.61 23466.31c344.13,0 620.72,-277.66 620.72,-616.42 0,-344.13 -276.59,-620.72 -620.72,-620.72 -344.12,0 -620.71,276.59 -620.71,620.72 0,338.76 276.59,616.42 620.71,616.42z"/>
  <path class="fil0" d="M45698.18 23481.32c351.63,0 631.44,-284.09 631.44,-631.43 0,-351.63 -279.81,-636.8 -631.44,-636.8 -350.56,0 -635.72,285.17 -635.72,636.8 0,347.34 285.16,631.43 635.72,631.43z"/>
  <polygon class="fil0" points="17788.56,24216.74 17796.06,24208.17 17788.56,24200.66 17781.06,24208.17 "/>
  <polygon class="fil0" points="19147.91,24252.12 19191.87,24208.17 19147.91,24165.29 19102.89,24208.17 "/>
  <polygon class="fil0" points="20510.48,24296.08 20595.17,24208.17 20510.48,24123.48 20420.43,24208.17 "/>
  <polygon class="fil0" points="21868.76,24337.89 21998.48,24208.17 21868.76,24079.52 21743.33,24208.17 "/>
  <polygon class="fil0" points="23232.4,24374.34 23397.5,24208.17 23232.4,24042 23065.17,24208.17 "/>
  <polygon class="fil0" points="24593.9,24415.07 24800.81,24208.17 24593.9,24002.34 24387,24208.17 "/>
  <polygon class="fil0" points="25953.26,24455.81 26201.97,24208.17 25953.26,23963.74 25710.97,24208.17 "/>
  <polygon class="fil0" points="27316.9,24493.33 27602.06,24208.17 27316.9,23928.36 27033.88,24208.17 "/>
  <polygon class="fil0" points="28679.47,24529.78 29001.08,24208.17 28679.47,23887.63 28357.85,24208.17 "/>
  <polygon class="fil0" points="30039.89,24561.94 30392.59,24208.17 30039.89,23853.32 29683.97,24208.17 "/>
  <polygon class="fil0" points="31401.39,24596.25 31790.54,24208.17 31401.39,23821.16 31014.38,24208.17 "/>
  <polygon class="fil0" points="32765.03,24628.41 33182.06,24208.17 32765.03,23791.14 32344.79,24208.17 "/>
  <polygon class="fil0" points="34124.38,24659.5 34573.57,24208.17 34124.38,23761.13 33677.34,24208.17 "/>
  <polygon class="fil0" points="35486.95,24689.52 35967.23,24208.17 35486.95,23727.89 35006.68,24208.17 "/>
  <polygon class="fil0" points="36850.59,24714.17 37352.31,24208.17 36850.59,23702.16 36343.52,24208.17 "/>
  <polygon class="fil0" points="38207.8,24736.69 38736.32,24208.17 38207.8,23680.72 37680.36,24208.17 "/>
  <polygon class="fil0" points="39571.44,24759.2 40122.48,24208.17 39571.44,23658.21 39021.49,24208.17 "/>
  <polygon class="fil0" points="40930.8,24780.64 41502.2,24208.17 40930.8,23638.91 40361.54,24208.17 "/>
  <polygon class="fil0" points="42292.29,24795.65 42880.85,24208.17 42292.29,23626.05 41709.1,24208.17 "/>
  <polygon class="fil0" points="43655.94,24810.66 44254.14,24208.17 43655.94,23609.97 43054.52,24208.17 "/>
  <polygon class="fil0" points="45015.29,24825.67 45630.64,24208.17 45015.29,23596.03 44402.08,24208.17 "/>
  <path class="fil0" d="M46378.93 24839.6c347.34,0 630.36,-285.16 630.36,-631.43 0,-346.27 -283.02,-631.44 -630.36,-631.44 -347.34,0 -632.51,285.17 -632.51,631.44 0,346.27 285.17,631.43 632.51,631.43z"/>
  <polygon class="fil0" points="18468.24,25585.75 18482.17,25571.81 18468.24,25556.8 18453.23,25571.81 "/>
  <polygon class="fil0" points="19831.88,25626.48 19885.48,25571.81 19831.88,25517.14 19770.77,25571.81 "/>
  <polygon class="fil0" points="21189.09,25667.22 21289.86,25571.81 21189.09,25472.11 21093.67,25571.81 "/>
  <polygon class="fil0" points="22552.73,25709.03 22688.88,25571.81 22552.73,25433.52 22416.58,25571.81 "/>
  <polygon class="fil0" points="23912.08,25748.7 24088.97,25571.81 23912.08,25393.85 23734.12,25571.81 "/>
  <polygon class="fil0" points="25273.58,25785.15 25490.13,25571.81 25273.58,25357.4 25061.31,25571.81 "/>
  <polygon class="fil0" points="26637.22,25822.67 26889.15,25571.81 26637.22,25315.59 26383.15,25571.81 "/>
  <polygon class="fil0" points="27996.57,25862.33 28289.24,25571.81 27996.57,25280.21 27708.19,25571.81 "/>
  <polygon class="fil0" points="29360.21,25898.78 29688.26,25571.81 29360.21,25241.62 29031.1,25571.81 "/>
  <polygon class="fil0" points="30721.71,25933.09 31084.06,25571.81 30721.71,25209.46 30360.43,25571.81 "/>
  <polygon class="fil0" points="32081.07,25963.11 32475.58,25571.81 32081.07,25179.44 31689.77,25571.81 "/>
  <polygon class="fil0" points="33444.71,25995.27 33869.24,25571.81 33444.71,25142.99 33016.96,25571.81 "/>
  <polygon class="fil0" points="34807.28,26025.28 35257.53,25571.81 34807.28,25117.26 34351.66,25571.81 "/>
  <polygon class="fil0" points="36166.63,26051.01 36646.91,25571.81 36166.63,25091.53 35685.28,25571.81 "/>
  <polygon class="fil0" points="37529.2,26077.81 38035.2,25571.81 37529.2,25065.8 37023.19,25571.81 "/>
  <polygon class="fil0" points="38887.48,26099.26 39420.29,25571.81 38887.48,25044.36 38360.03,25571.81 "/>
  <polygon class="fil0" points="40251.12,26117.48 40797.86,25571.81 40251.12,25025.07 39704.38,25571.81 "/>
  <polygon class="fil0" points="41612.62,26135.71 42178.66,25571.81 41612.62,25005.77 41044.43,25571.81 "/>
  <polygon class="fil0" points="42971.97,26151.79 43555.16,25571.81 42971.97,24987.55 42393.07,25571.81 "/>
  <polygon class="fil0" points="44335.61,26162.51 44930.6,25571.81 44335.61,24977.9 43744.92,25571.81 "/>
  <polygon class="fil0" points="45698.18,26177.52 46304.96,25571.81 45698.18,24960.74 45089.26,25571.81 "/>
  <polygon class="fil0" points="19147.91,26956.89 19169.35,26930.09 19147.91,26908.65 19125.4,26930.09 "/>
  <polygon class="fil0" points="20510.48,27000.85 20575.88,26930.09 20510.48,26863.62 20439.73,26930.09 "/>
  <polygon class="fil0" points="21868.76,27037.3 21975.97,26930.09 21868.76,26827.17 21766.92,26930.09 "/>
  <polygon class="fil0" points="23232.4,27078.03 23379.27,26930.09 23232.4,26787.51 23084.46,26930.09 "/>
  <polygon class="fil0" points="24593.9,27119.84 24780.44,26930.09 24593.9,26745.7 24409.51,26930.09 "/>
  <polygon class="fil0" points="25953.26,27155.22 26179.46,26930.09 25953.26,26709.25 25731.34,26930.09 "/>
  <polygon class="fil0" points="27316.9,27193.81 27579.55,26930.09 27316.9,26671.73 27058.53,26930.09 "/>
  <polygon class="fil0" points="28679.47,27229.19 28974.28,26930.09 28679.47,26635.28 28380.37,26930.09 "/>
  <polygon class="fil0" points="30039.89,27262.42 30372.23,26930.09 30039.89,26602.05 29707.56,26930.09 "/>
  <polygon class="fil0" points="31401.39,27299.95 31766.96,26930.09 31401.39,26564.52 31036.89,26930.09 "/>
  <polygon class="fil0" points="32765.03,27328.89 33159.54,26930.09 32765.03,26535.58 32365.16,26930.09 "/>
  <polygon class="fil0" points="34124.38,27358.91 34551.06,26930.09 34124.38,26506.63 33698.78,26930.09 "/>
  <polygon class="fil0" points="35486.95,27385.71 35940.43,26930.09 35486.95,26479.83 35033.48,26930.09 "/>
  <polygon class="fil0" points="36850.59,27410.37 37325.51,26930.09 36850.59,26453.03 36368.17,26930.09 "/>
  <polygon class="fil0" points="38207.8,27432.88 38711.66,26930.09 38207.8,26432.66 37705.01,26930.09 "/>
  <polygon class="fil0" points="39571.44,27459.68 40095.67,26930.09 39571.44,26405.86 39047.21,26930.09 "/>
  <polygon class="fil0" points="40930.8,27476.83 41477.54,26930.09 40930.8,26388.71 40387.27,26930.09 "/>
  <polygon class="fil0" points="42292.29,27496.13 42855.12,26930.09 42292.29,26369.41 41732.69,26930.09 "/>
  <polygon class="fil0" points="43655.94,27506.85 44227.34,26930.09 43655.94,26357.62 43080.25,26930.09 "/>
  <polygon class="fil0" points="45015.29,27521.86 45605.99,26930.09 45015.29,26343.68 44428.88,26930.09 "/>
  <polygon class="fil0" points="46378.93,27528.29 46977.13,26930.09 46378.93,26335.11 45780.73,26930.09 "/>
  <polygon class="fil0" points="18468.24,28296.95 18472.52,28292.66 18468.24,28289.44 18462.88,28292.66 "/>
  <polygon class="fil0" points="19831.88,28326.97 19864.04,28292.66 19831.88,28260.5 19794.36,28292.66 "/>
  <polygon class="fil0" points="21189.09,28366.63 21264.13,28292.66 21189.09,28222.98 21119.4,28292.66 "/>
  <polygon class="fil0" points="22552.73,28407.37 22663.15,28292.66 22552.73,28179.02 22436.95,28292.66 "/>
  <polygon class="fil0" points="23912.08,28444.89 24062.17,28292.66 23912.08,28141.5 23764.14,28292.66 "/>
  <polygon class="fil0" points="25273.58,28481.34 25463.33,28292.66 25273.58,28105.05 25085.97,28292.66 "/>
  <polygon class="fil0" points="26637.22,28518.86 26861.28,28292.66 26637.22,28067.53 26407.8,28292.66 "/>
  <polygon class="fil0" points="27996.57,28559.6 28262.44,28292.66 27996.57,28031.08 27733.92,28292.66 "/>
  <polygon class="fil0" points="29360.21,28592.83 29658.24,28292.66 29360.21,27994.63 29060.04,28292.66 "/>
  <polygon class="fil0" points="30721.71,28624.99 31054.05,28292.66 30721.71,27960.33 30390.45,28292.66 "/>
  <polygon class="fil0" points="32081.07,28659.3 32446.63,28292.66 32081.07,27928.16 31714.43,28292.66 "/>
  <polygon class="fil0" points="33444.71,28688.24 33839.22,28292.66 33444.71,27898.15 33049.12,28292.66 "/>
  <polygon class="fil0" points="34807.28,28718.26 35228.59,28292.66 34807.28,27871.35 34381.67,28292.66 "/>
  <polygon class="fil0" points="36166.63,28742.92 36616.89,28292.66 36166.63,27842.4 35718.51,28292.66 "/>
  <polygon class="fil0" points="37529.2,28769.72 38005.19,28292.66 37529.2,27816.67 37052.14,28292.66 "/>
  <polygon class="fil0" points="38887.48,28792.23 39387.05,28292.66 38887.48,27795.23 38394.34,28292.66 "/>
  <polygon class="fil0" points="40251.12,28813.67 40772.13,28292.66 40251.12,27772.72 39731.18,28292.66 "/>
  <polygon class="fil0" points="41612.62,28828.68 42148.64,28292.66 41612.62,27757.71 41077.67,28292.66 "/>
  <polygon class="fil0" points="42971.97,28847.98 43530.51,28292.66 42971.97,27739.48 42417.72,28292.66 "/>
  <polygon class="fil0" points="44335.61,28858.7 44901.65,28292.66 44335.61,27727.69 43769.57,28292.66 "/>
  <polygon class="fil0" points="45698.18,28872.64 46274.94,28292.66 45698.18,27718.04 45118.21,28292.66 "/>
  <polygon class="fil0" points="19147.91,29659.52 19152.2,29656.3 19147.91,29653.09 19142.55,29656.3 "/>
  <polygon class="fil0" points="20510.48,29692.75 20545.86,29656.3 20510.48,29618.78 20474.03,29656.3 "/>
  <polygon class="fil0" points="21868.76,29732.42 21950.24,29656.3 21868.76,29574.83 21791.58,29656.3 "/>
  <polygon class="fil0" points="23232.4,29771.01 23350.33,29656.3 23232.4,29538.38 23113.41,29656.3 "/>
  <polygon class="fil0" points="24593.9,29811.75 24749.35,29656.3 24593.9,29500.86 24439.53,29656.3 "/>
  <polygon class="fil0" points="25953.26,29848.2 26150.51,29656.3 25953.26,29464.41 25761.36,29656.3 "/>
  <polygon class="fil0" points="27316.9,29884.65 27546.31,29656.3 27316.9,29422.6 27087.48,29656.3 "/>
  <polygon class="fil0" points="28679.47,29917.88 28942.12,29656.3 28679.47,29390.43 28414.67,29656.3 "/>
  <polygon class="fil0" points="30039.89,29956.47 30337.92,29656.3 30039.89,29356.13 29744.01,29656.3 "/>
  <polygon class="fil0" points="31401.39,29988.64 31733.72,29656.3 31401.39,29323.97 31069.05,29656.3 "/>
  <polygon class="fil0" points="32765.03,30017.58 33127.38,29656.3 32765.03,29293.95 32398.39,29656.3 "/>
  <polygon class="fil0" points="34124.38,30047.6 34518.9,29656.3 34124.38,29260.72 33732.01,29656.3 "/>
  <polygon class="fil0" points="35486.95,30074.4 35905.05,29656.3 35486.95,29234.99 35065.64,29656.3 "/>
  <polygon class="fil0" points="36850.59,30099.06 37293.35,29656.3 36850.59,29208.19 36402.48,29656.3 "/>
  <polygon class="fil0" points="38207.8,30125.86 38677.36,29656.3 38207.8,29186.75 37739.32,29656.3 "/>
  <polygon class="fil0" points="39571.44,30148.37 40063.51,29656.3 39571.44,29164.23 39079.38,29656.3 "/>
  <polygon class="fil0" points="40930.8,30165.52 41440.02,29656.3 40930.8,29146.01 40420.5,29656.3 "/>
  <polygon class="fil0" points="42292.29,30183.75 42821.89,29656.3 42292.29,29128.86 41764.85,29656.3 "/>
  <polygon class="fil0" points="43655.94,30199.83 44198.39,29656.3 43655.94,29113.85 43112.41,29656.3 "/>
  <polygon class="fil0" points="45015.29,30210.55 45571.68,29656.3 45015.29,29097.77 44461.04,29656.3 "/>
  <polygon class="fil0" points="46378.93,30222.34 46942.83,29656.3 46378.93,29087.05 45812.89,29656.3 "/>
  <polygon class="fil0" points="19831.88,31023.16 19837.24,31015.65 19831.88,31008.15 19819.01,31015.65 "/>
  <polygon class="fil0" points="21189.09,31059.61 21230.9,31015.65 21189.09,30974.92 21149.42,31015.65 "/>
  <polygon class="fil0" points="22552.73,31096.06 22630.99,31015.65 22552.73,30937.4 22471.25,31015.65 "/>
  <polygon class="fil0" points="23912.08,31133.58 24030.01,31015.65 23912.08,30902.02 23798.44,31015.65 "/>
  <polygon class="fil0" points="25273.58,31170.03 25429.02,31015.65 25273.58,30860.21 25119.2,31015.65 "/>
  <polygon class="fil0" points="26637.22,31211.84 26829.12,31015.65 26637.22,30822.69 26445.32,31015.65 "/>
  <polygon class="fil0" points="27996.57,31247.22 28230.28,31015.65 27996.57,30786.24 27767.16,31015.65 "/>
  <polygon class="fil0" points="29360.21,31281.52 29625.01,31015.65 29360.21,30751.93 29094.35,31015.65 "/>
  <polygon class="fil0" points="30721.71,31310.47 31014.38,31015.65 30721.71,30722.99 30426.9,31015.65 "/>
  <polygon class="fil0" points="32081.07,31343.7 32409.11,31015.65 32081.07,30687.61 31751.95,31015.65 "/>
  <polygon class="fil0" points="33444.71,31376.93 33802.77,31015.65 33444.71,30656.52 33085.57,31015.65 "/>
  <polygon class="fil0" points="34807.28,31403.74 35191.07,31015.65 34807.28,30630.79 34420.27,31015.65 "/>
  <polygon class="fil0" points="36166.63,31428.39 36579.37,31015.65 36166.63,30605.06 35754.96,31015.65 "/>
  <polygon class="fil0" points="37529.2,31454.12 37965.52,31015.65 37529.2,30579.33 37089.66,31015.65 "/>
  <polygon class="fil0" points="38887.48,31476.63 39349.53,31015.65 38887.48,30556.82 38429.72,31015.65 "/>
  <polygon class="fil0" points="40251.12,31494.86 40731.4,31015.65 40251.12,30538.59 39770.84,31015.65 "/>
  <polygon class="fil0" points="41612.62,31514.16 42112.19,31015.65 41612.62,30516.08 41115.19,31015.65 "/>
  <polygon class="fil0" points="42971.97,31528.09 43486.55,31015.65 42971.97,30502.15 42459.53,31015.65 "/>
  <polygon class="fil0" points="44335.61,31547.39 44863.06,31015.65 44335.61,30486.06 43807.09,31015.65 "/>
  <polygon class="fil0" points="45698.18,31557.04 46238.49,31015.65 45698.18,30476.42 45155.73,31015.65 "/>
  <polygon class="fil0" points="20510.48,32384.66 20516.91,32377.15 20510.48,32371.79 20504.05,32377.15 "/>
  <polygon class="fil0" points="21868.76,32422.18 21917.01,32377.15 21868.76,32333.2 21823.74,32377.15 "/>
  <polygon class="fil0" points="23232.4,32462.92 23316.02,32377.15 23232.4,32297.82 23150.93,32377.15 "/>
  <polygon class="fil0" points="24593.9,32500.44 24713.97,32377.15 24593.9,32256.01 24472.76,32377.15 "/>
  <polygon class="fil0" points="25953.26,32533.67 26108.7,32377.15 25953.26,32223.85 25799.95,32377.15 "/>
  <polygon class="fil0" points="27316.9,32569.05 27508.79,32377.15 27316.9,32185.26 27125,32377.15 "/>
  <polygon class="fil0" points="28679.47,32603.35 28905.67,32377.15 28679.47,32153.09 28452.19,32377.15 "/>
  <polygon class="fil0" points="30039.89,32639.8 30301.47,32377.15 30039.89,32118.79 29779.38,32377.15 "/>
  <polygon class="fil0" points="31401.39,32669.82 31694.06,32377.15 31401.39,32086.63 31110.86,32377.15 "/>
  <polygon class="fil0" points="32765.03,32699.84 33083.43,32377.15 32765.03,32056.61 32443.42,32377.15 "/>
  <polygon class="fil0" points="34124.38,32728.78 34474.94,32377.15 34124.38,32027.67 33772.75,32377.15 "/>
  <polygon class="fil0" points="35486.95,32754.51 35863.24,32377.15 35486.95,32000.86 35109.59,32377.15 "/>
  <polygon class="fil0" points="36850.59,32780.24 37251.54,32377.15 36850.59,31975.14 36442.14,32377.15 "/>
  <polygon class="fil0" points="38207.8,32805.97 38636.62,32377.15 38207.8,31953.69 37783.27,32377.15 "/>
  <polygon class="fil0" points="39571.44,32827.41 40019.56,32377.15 39571.44,31926.89 39121.19,32377.15 "/>
  <polygon class="fil0" points="40930.8,32846.71 41400.35,32377.15 40930.8,31908.67 40465.53,32377.15 "/>
  <polygon class="fil0" points="42292.29,32861.72 42776.86,32377.15 42292.29,31894.73 41809.87,32377.15 "/>
  <polygon class="fil0" points="43655.94,32876.73 44154.44,32377.15 43655.94,31879.72 43156.36,32377.15 "/>
  <polygon class="fil0" points="45015.29,32891.73 45529.87,32377.15 45015.29,31864.71 44500.71,32377.15 "/>
  <polygon class="fil0" points="46378.93,32901.38 46903.16,32377.15 46378.93,31853.99 45852.56,32377.15 "/>
  <polygon class="fil0" points="21189.09,33748.3 21197.66,33740.79 21189.09,33733.29 21183.73,33740.79 "/>
  <polygon class="fil0" points="22552.73,33784.75 22596.68,33740.79 22552.73,33693.62 22508.77,33740.79 "/>
  <polygon class="fil0" points="23912.08,33817.98 23993.56,33740.79 23912.08,33659.32 23834.89,33740.79 "/>
  <polygon class="fil0" points="25273.58,33856.57 25393.65,33740.79 25273.58,33622.87 25157.8,33740.79 "/>
  <polygon class="fil0" points="26637.22,33891.95 26788.38,33740.79 26637.22,33588.56 26484.99,33740.79 "/>
  <polygon class="fil0" points="27996.57,33929.47 28184.18,33740.79 27996.57,33553.19 27806.82,33740.79 "/>
  <polygon class="fil0" points="29360.21,33958.42 29576.77,33740.79 29360.21,33518.88 29141.52,33740.79 "/>
  <polygon class="fil0" points="30721.71,33991.65 30973.64,33740.79 30721.71,33485.65 30468.71,33740.79 "/>
  <polygon class="fil0" points="32081.07,34021.67 32365.16,33740.79 32081.07,33457.77 31800.19,33740.79 "/>
  <polygon class="fil0" points="33444.71,34053.83 33757.74,33740.79 33444.71,33426.68 33130.6,33740.79 "/>
  <polygon class="fil0" points="34807.28,34080.63 35147.11,33740.79 34807.28,33400.96 34467.44,33740.79 "/>
  <polygon class="fil0" points="36166.63,34105.29 36532.2,33740.79 36166.63,33374.15 35799.99,33740.79 "/>
  <polygon class="fil0" points="37529.2,34132.09 37921.57,33740.79 37529.2,33345.21 37136.83,33740.79 "/>
  <polygon class="fil0" points="38887.48,34150.31 39301.29,33740.79 38887.48,33326.98 38477.96,33740.79 "/>
  <polygon class="fil0" points="40251.12,34171.76 40686.37,33740.79 40251.12,33305.54 39818.01,33740.79 "/>
  <polygon class="fil0" points="41612.62,34191.05 42065.02,33740.79 41612.62,33287.32 41159.14,33740.79 "/>
  <polygon class="fil0" points="42971.97,34206.06 43441.53,33740.79 42971.97,33272.31 42508.85,33740.79 "/>
  <polygon class="fil0" points="44335.61,34224.29 44820.18,33740.79 44335.61,33256.23 43851.05,33740.79 "/>
  <polygon class="fil0" points="45698.18,34236.08 46194.54,33740.79 45698.18,33245.51 45202.9,33740.79 "/>
 </g>
</svg>
